<svg width="100" height="100" viewBox="0 0 100 100" fill="none" xmlns="http://www.w3.org/2000/svg">
<path d="M50 8.33333C55.4717 8.33333 60.8899 9.41107 65.9451 11.505C71.0004 13.599 75.5937 16.6681 79.4628 20.5372C83.3319 24.4063 86.401 28.9996 88.495 34.0549C90.5889 39.1101 91.6666 44.5283 91.6666 50C91.6666 61.0507 87.2768 71.6488 79.4628 79.4628C71.6487 87.2768 61.0507 91.6667 50 91.6667C30.8333 91.6667 14.7916 78.8333 9.83331 61.375L25.7916 67.9583C26.3385 70.6274 27.7895 73.026 29.8999 74.7492C32.0102 76.4724 34.6505 77.4145 37.375 77.4167C43.875 77.4167 49.1666 72.125 49.1666 65.625V65.0833L63.3333 54.9583H63.6666C72.3333 54.9583 79.375 47.9167 79.375 39.25C79.375 30.5833 72.3333 23.5417 63.6666 23.5417C55 23.5417 47.9166 30.5833 47.9166 39.25V39.4583L38.0416 53.875L37.375 53.8333C34.9166 53.8333 32.625 54.5833 30.75 55.875L8.33331 46.6667C10.125 25.2083 28.0416 8.33333 50 8.33333ZM34.5 71.5417C37.8333 72.9167 41.6666 71.375 43.0416 68.0417C44.4166 64.7083 42.8333 60.9167 39.5833 59.5417L34.25 57.3333C36.2916 56.5833 38.5833 56.5417 40.75 57.4583C42.9583 58.3333 44.6666 60.0417 45.5416 62.25C46.4583 64.4167 46.4583 66.8333 45.5416 69C43.75 73.5 38.4583 75.6667 33.9583 73.7917C31.875 72.9167 30.2916 71.3333 29.4166 69.4583L34.5 71.5417ZM74.1666 39.25C74.1666 45.0417 69.4583 49.75 63.6666 49.75C60.8891 49.739 58.2291 48.6279 56.2689 46.6599C54.3088 44.692 53.2083 42.0276 53.2083 39.25C53.2028 37.875 53.4696 36.5126 53.9932 35.2413C54.5168 33.9699 55.287 32.8148 56.2592 31.8426C57.2314 30.8703 58.3865 30.1002 59.6579 29.5765C60.9293 29.0529 62.2917 28.7862 63.6666 28.7917C66.4442 28.7916 69.1086 29.8922 71.0766 31.8523C73.0445 33.8124 74.1556 36.4725 74.1666 39.25ZM55.8333 39.25C55.8333 43.5833 59.3333 47.125 63.7083 47.125C68.0416 47.125 71.5416 43.5833 71.5416 39.25C71.5416 34.9167 68.0416 31.375 63.7083 31.375C59.3333 31.375 55.8333 34.9167 55.8333 39.25Z" fill="#757575"/>
</svg>
