<svg width="100" height="100" viewBox="0 0 100 100" fill="none" xmlns="http://www.w3.org/2000/svg">
<path d="M72.2622 46.4666L68.8275 24.76C68.7506 24.2737 68.5183 23.8253 68.1655 23.4819C67.8127 23.1385 67.3582 22.9184 66.87 22.8546L39.7862 19.3291C39.2979 19.2658 38.8022 19.3622 38.3732 19.6038C37.9442 19.8455 37.605 20.2195 37.4061 20.6699L28.5289 40.7738C27.1459 43.8523 26.6515 47.2562 27.1013 50.6009C27.5511 53.9457 28.9272 57.098 31.0743 59.7018C34.6049 63.9962 39.4699 66.9869 44.8957 68.1982L43.4097 79.6137L34.361 78.4358C33.7611 78.3577 33.1547 78.5211 32.6752 78.8901C32.1957 79.2592 31.8825 79.8035 31.8044 80.4035C31.7263 81.0035 31.8898 81.6099 32.2588 82.0893C32.6278 82.5688 33.1721 82.882 33.7721 82.9601L56.3938 85.9048C56.9937 85.9829 57.6001 85.8195 58.0796 85.4505C58.5591 85.0814 58.8723 84.5371 58.9504 83.9371C59.0285 83.3372 58.8651 82.7307 58.496 82.2513C58.127 81.7718 57.5827 81.4586 56.9827 81.3805L47.934 80.2026L49.42 68.7872C54.9751 69.0052 60.4436 67.3596 64.9559 64.1122C67.6975 62.1444 69.8345 59.4493 71.1255 56.3313C72.4165 53.2133 72.8102 49.7965 72.2622 46.4666ZM40.8882 24.0735L64.59 27.1588L67.7609 47.1804C67.7753 47.2686 67.7869 47.3564 67.7985 47.4441C61.4589 48.8274 54.98 45.3154 51.5226 42.9588C44.8689 38.4263 39.2731 37.2321 35.0124 37.3791L40.8882 24.0735Z" fill="#797979"/>
</svg>
